# xmcd
#
# Track frame offsets: 
#        150
#        12822
#        25564
#        37862
#        47305
#        56640
#        67719
#        82012
#        94693
#        108038
#        121276
#        134694
#        144593
#        159104
#        171169
#        183027
#        195192
#        208645
#        220720
#        233219
#
# Disc length: 3236 seconds
#
# Revision: 0
# Processed by: cddbd v1.5.1PL0 Copyright (c) Steve Scherf et al.
# Submitted via: ExactAudioCopy v0.95a5
#
DISCID=f00ca214
DTITLE=Various Artist - The Devil Is A Busy Man
DYEAR=2005
DGENRE=Blues
TTITLE0=Sunnyland Slim - The Devil Is A Busy Man
TTITLE1=St. Louis Jimmy - Murder In The First Degree
TTITLE2=Henry Gray - Watch Yourself
TTITLE3=Harmonica Slim - Drop Anchor
TTITLE4=Willie Egan - Wear Your Black Dress
TTITLE5=J.B. Lenoir - Mama Talk To Your Daughter
TTITLE6=L.C. McKinley - Rosalie Blues
TTITLE7=Little Papa Joe (Jody Williams) - Easy Lovin'
TTITLE8=Nature Boy Brown - Blue Blue Boogie
TTITLE9=Curtis Jones - Cool Playing Blues
TTITLE10=Snooky Pryor - Crosstown Blues
TTITLE11=Little Willie Foster - Four Day Jump
TTITLE12=Albert King - Bad Luck Blues
TTITLE13=Earl Hooker - On The Hook
TTITLE14=Little Sammy Davis - Goin' To New Orleans
TTITLE15=Johnny Lewis (Joe Hill Louis) - She's Takin All My Money
TTITLE16=Jimmy Wilson - Alley Blues
TTITLE17=Lightnin' Hopkins - Walkin' The Streets
TTITLE18=Willie (W.C.) Baker - Goin' Back Home Today
TTITLE19=Eddie Hope and the Mannish Boys - Lost Child
EXTD=
EXTT0=
EXTT1=
EXTT2=
EXTT3=
EXTT4=
EXTT5=
EXTT6=
EXTT7=
EXTT8=
EXTT9=
EXTT10=
EXTT11=
EXTT12=
EXTT13=
EXTT14=
EXTT15=
EXTT16=
EXTT17=
EXTT18=
EXTT19=
PLAYORDER=
